<?xml version="1.0" encoding="UTF-8" standalone="no"?>
<!-- Created with Inkscape (http://www.inkscape.org/) -->

<svg
   width="252.33029mm"
   height="43.229847mm"
   viewBox="0 0 252.3303 43.229847"
   version="1.1"
   id="svg1031"
   inkscape:version="1.2.1 (9c6d41e, 2022-07-14)"
   sodipodi:docname="peacefounder-logo.svg"
   xml:space="preserve"
   xmlns:inkscape="http://www.inkscape.org/namespaces/inkscape"
   xmlns:sodipodi="http://sodipodi.sourceforge.net/DTD/sodipodi-0.dtd"
   xmlns="http://www.w3.org/2000/svg"
   xmlns:svg="http://www.w3.org/2000/svg"><sodipodi:namedview
     id="namedview1033"
     pagecolor="#ffffff"
     bordercolor="#000000"
     borderopacity="0.25"
     inkscape:showpageshadow="2"
     inkscape:pageopacity="0.0"
     inkscape:pagecheckerboard="0"
     inkscape:deskcolor="#d1d1d1"
     inkscape:document-units="mm"
     showgrid="false"
     inkscape:zoom="0.50245999"
     inkscape:cx="596.06737"
     inkscape:cy="87.569162"
     inkscape:window-width="1467"
     inkscape:window-height="916"
     inkscape:window-x="45"
     inkscape:window-y="38"
     inkscape:window-maximized="1"
     inkscape:current-layer="g13321" /><defs
     id="defs1028" /><g
     inkscape:groupmode="layer"
     id="layer2"
     inkscape:label="Layer 2"
     style="display:inline"
     transform="translate(-4.4640928,-27.384205)" /><g
     inkscape:label="Layer 1"
     inkscape:groupmode="layer"
     id="layer1"
     transform="translate(-4.4640928,-27.384205)"><g
       id="g13321"><g
         id="g1609"
         transform="matrix(0.8083929,0,0,0.8083929,4.778863,9.3254296)"
         style="display:inline;stroke:#000000;stroke-width:2.2;stroke-dasharray:none;stroke-opacity:1"><g
           id="g1612"
           style="fill:#343f4e;fill-opacity:0.905882;stroke:#000000;stroke-width:2.2;stroke-dasharray:none;stroke-opacity:1"
           transform="translate(0.47951176,0.83914553)"><circle
             style="opacity:1;fill:none;fill-opacity:0.905882;stroke:#9da3ae;stroke-width:2.2;stroke-dasharray:none;stroke-opacity:1"
             id="path2236"
             cx="25.982761"
             cy="48.351612"
             r="20.514923" /><path
             d="m 7.5326789,59.082988 c 18.4174931,0.008 22.9908291,2.188028 23.6033021,-10.144396 6.04913,-0.16636 7.714975,-1.611304 8.454974,-8.864016 1.925008,-0.09756 3.006834,-0.105189 4.871399,-0.757325 0.908669,-1.142795 -1.355157,-0.807972 -2.050002,-0.838523 -20.336589,-0.176793 -19.3335,-1.955635 -20.870953,9.40852 -7.804086,0.445691 -9.252179,3.113655 -9.422348,9.545608 -1.806101,0.45685 -2.5066143,-0.364208 -4.1865861,0.725362 -0.244161,0.20755 -0.404066,0.56001 -0.399583,0.9246 z m 6.0805291,-1.708172 c 0.162748,-5.809501 4.916442,-7.787328 7.799471,-8.104478 -0.474935,1.93087 -0.953013,5.45857 -1.355129,7.41191 m 1.312562,-0.0339 c 0.462007,-2.66688 1.231125,-7.34912 1.231125,-7.34912 l 6.912049,-0.44147 c -0.879703,4.67659 -2.33767,7.716932 -8.143349,7.79045 z m 1.472144,-8.84808 c 1.70207,-5.43034 3.403908,-8.201428 7.699918,-8.1217 -0.177058,1.88155 -0.636671,5.8505 -0.865957,7.72377 m 1.31888,-0.0131 c 0.213295,-2.39848 0.682936,-7.620403 0.682936,-7.620403 l 5.651131,0.112186 c 0,0 1.037255,7.266212 -6.334184,7.508267"
             fill="#402c2c"
             id="path441"
             style="fill:#9da3ae;fill-opacity:1;stroke:none;stroke-width:2.2;stroke-dasharray:none;stroke-opacity:1"
             sodipodi:nodetypes="ccccccccccccccccccccccccc" /></g></g><text
         xml:space="preserve"
         style="font-weight:500;font-size:30.642px;font-family:Asap;-inkscape-font-specification:'Asap, Medium';text-align:center;text-anchor:middle;opacity:0.904977;fill:#cdcfd5;fill-opacity:1;stroke-width:0.620423;stroke-dasharray:0.620423, 0.620423"
         x="154.17569"
         y="59.839531"
         id="text1154"><tspan
           sodipodi:role="line"
           id="tspan1152"
           style="fill:#cdcfd5;fill-opacity:1;stroke-width:0.620424"
           x="154.17569"
           y="59.839531">PeaceFounder</tspan></text></g></g></svg>
